<svg width="24" height="24" viewBox="0 0 24 24" fill="none" xmlns="http://www.w3.org/2000/svg">
  <path d="M22.46 6.00302C21.69 6.34702 20.86 6.57002 20 6.66002C20.88 6.10302 21.56 5.22402 21.88 4.16502C21.05 4.68202 20.13 5.05802 19.16 5.27002C18.37 4.39202 17.21 3.87502 16 3.87502C13.66 3.87502 11.75 5.78202 11.75 8.12202C11.75 8.46502 11.79 8.79802 11.87 9.11502C8.437 8.93102 5.418 7.31802 3.392 4.90502C3.02 5.52502 2.81 6.25202 2.81 7.02202C2.81 8.47102 3.56 9.75202 4.69 10.504C3.99 10.482 3.327 10.284 2.75 9.96502V10.01C2.75 12.052 4.185 13.767 6.08 14.177C5.735 14.27 5.367 14.318 4.99 14.318C4.724 14.318 4.467 14.294 4.217 14.246C4.74 15.935 6.27 17.122 8.09 17.153C6.665 18.236 4.865 18.883 2.915 18.883C2.59 18.883 2.27 18.867 1.955 18.833C3.793 20.003 5.986 20.75 8.36 20.75C16 20.75 20.5 14.5 20.5 8.62202C20.5 8.44202 20.5 8.26202 20.49 8.08202C21.32 7.47302 22.05 6.72202 22.46 6.00302Z" fill="#1DA1F2"/>
</svg>
